<?xml version="1.0" encoding="UTF-8" standalone="no"?>
<!-- Generator: Adobe Illustrator 19.0.0, SVG Export Plug-In . SVG Version: 6.00 Build 0)  -->

<svg
   xmlns:dc="http://purl.org/dc/elements/1.1/"
   xmlns:cc="http://creativecommons.org/ns#"
   xmlns:rdf="http://www.w3.org/1999/02/22-rdf-syntax-ns#"
   xmlns:svg="http://www.w3.org/2000/svg"
   xmlns="http://www.w3.org/2000/svg"
   xmlns:sodipodi="http://sodipodi.sourceforge.net/DTD/sodipodi-0.dtd"
   xmlns:inkscape="http://www.inkscape.org/namespaces/inkscape"
   version="1.1"
   id="Capa_1"
   x="0px"
   y="0px"
   viewBox="0 0 462.87237 319.88351"
   xml:space="preserve"
   sodipodi:docname="king.svg"
   width="462.87238"
   height="319.88351"
   inkscape:version="0.92.4 (5da689c313, 2019-01-14)"><metadata
   id="metadata61"><rdf:RDF><cc:Work
       rdf:about=""><dc:format>image/svg+xml</dc:format><dc:type
         rdf:resource="http://purl.org/dc/dcmitype/StillImage" /><dc:title></dc:title></cc:Work></rdf:RDF></metadata><defs
   id="defs59" /><sodipodi:namedview
   pagecolor="#ffffff"
   bordercolor="#666666"
   borderopacity="1"
   objecttolerance="10"
   gridtolerance="10"
   guidetolerance="10"
   inkscape:pageopacity="0"
   inkscape:pageshadow="2"
   inkscape:window-width="1920"
   inkscape:window-height="1001"
   id="namedview57"
   showgrid="false"
   fit-margin-top="0"
   fit-margin-left="0"
   fit-margin-right="0"
   fit-margin-bottom="0"
   inkscape:zoom="0.50986017"
   inkscape:cx="231.43661"
   inkscape:cy="159.942"
   inkscape:window-x="-9"
   inkscape:window-y="-9"
   inkscape:window-maximized="1"
   inkscape:current-layer="Capa_1" />
<path
   style="fill:#ffcf70"
   d="m 96.864601,138.36351 38.239999,-53.280001 38.24,44.400001 -31.92,42.48 z"
   id="path2"
   inkscape:connector-curvature="0" />
<g
   id="g8"
   transform="translate(6.0119672e-4,-71.494491)">
	<circle
   style="fill:#cc9640"
   cx="135.104"
   cy="134.09801"
   r="22.48"
   id="circle4" />
	<circle
   style="fill:#cc9640"
   cx="230.784"
   cy="102.098"
   r="22.48"
   id="circle6" />
</g>
<path
   style="fill:#ffcf70"
   d="m 288.0646,129.32351 38.08,-44.240001 38.32,53.360001 -44.24,33.52 z"
   id="path10"
   inkscape:connector-curvature="0" />
<g
   id="g20"
   transform="translate(6.0119672e-4,-71.494491)">
	<circle
   style="fill:#cc9640"
   cx="326.54401"
   cy="134.09801"
   r="22.48"
   id="circle12" />
	<path
   style="fill:#cc9640"
   d="m 71.664,306.098 v 77.04 h 318.24 v -38.56 -38.48 z"
   id="path14"
   inkscape:connector-curvature="0" />
	<circle
   style="fill:#cc9640"
   cx="431.74399"
   cy="139.45799"
   r="22.48"
   id="circle16" />
	<circle
   style="fill:#cc9640"
   cx="30.464001"
   cy="140.17799"
   r="22.48"
   id="circle18" />
</g>
<path
   style="fill:#ffcf70"
   d="m 71.664601,234.60351 -36.64,-143.040001 106.399999,80.400001 89.36,-118.880001 89.44,118.880001 106.4,-80.400001 -36.72,143.040001 z"
   id="path22"
   inkscape:connector-curvature="0" />
<path
   style="fill:#35231a"
   d="m 431.7446,37.483509 c -16.789,-0.021 -30.417,13.572 -30.439,30.361 -0.012,9.351 4.281,18.187 11.639,23.959 l -46.8,35.360001 -26.64,-37.120001 c 15.303,-7.118 21.939,-25.294 14.821,-40.597 -7.118,-15.303 -25.294,-21.939 -40.597,-14.821 -15.303,7.118 -21.939,25.294 -14.821,40.597 2.756,5.926 7.34,10.812 13.077,13.941 l -23.52,27.360001 -44.16,-58.720001 c 15.087,-7.467 21.264,-25.75 13.797,-40.837 -7.467,-15.0869996 -25.75,-21.2639996 -40.837,-13.7969996 -15.087,7.4669996 -21.264,25.7499996 -13.797,40.8369996 2.963,5.987 7.811,10.834 13.797,13.797 l -44.32,58.960001 -23.6,-27.360001 c 14.874,-7.883 20.542,-26.33 12.659,-41.204 -7.883,-14.874 -26.33,-20.542 -41.204,-12.659 -14.874,7.883 -20.542,26.33 -12.659,41.204 3.027,5.712 7.791,10.313 13.604,13.139 l -26.639999,37.120001 -45.68,-34.640001 c 13.096,-10.506 15.196,-29.639 4.69,-42.736 -10.506,-13.097 -29.639,-15.196 -42.736,-4.69 -13.0969998,10.506 -15.1959998,29.639 -4.6899998,42.736 5.3979998,6.729 13.4019998,10.848 22.0159998,11.33 l 34.96,136.560001 v 76.32 c 0,4.418 3.582,8 8,8 H 389.9046 c 4.418,0 8,-3.582 8,-8 v -76.32 l 35.2,-137.280001 c 16.812,-0.376 30.136,-14.308 29.76,-31.12 -0.376,-16.812 -14.308,-30.136 -31.12,-29.76 z m -105.2,10.4 c 7.997,0 14.48,6.483 14.48,14.48 0,7.997 -6.483,14.48 -14.48,14.48 -7.997,0 -14.48,-6.483 -14.48,-14.48 0,-7.997 6.483,-14.48 14.48,-14.48 z m -0.96,49.92 27.84,38.800001 -32,24 -23.12,-30.96 z m -109.28,-67.2 c 0.002,-7.997 6.486,-14.478 14.484,-14.476 7.997,0.002 14.478,6.486 14.476,14.484 -0.002,7.871 -6.291,14.299 -14.16,14.473 -7.995,0.177 -14.62,-6.161 -14.796,-14.156 -0.003,-0.109 -0.004,-0.217 -0.004,-0.325 z m -96,32 c 0.002,-7.997 6.486,-14.478 14.484,-14.476 7.998,0.002 14.478,6.486 14.476,14.484 -0.002,7.871 -6.291,14.299 -14.16,14.473 -7.997,0 -14.48,-6.483 -14.48,-14.48 h -0.32 z m 15.04,35.44 27.44,32.000001 -23.28,30.96 -32,-24 z m -104.879999,-14.8 c -7.997,0 -14.48,-6.483 -14.48,-14.48 0,-7.997 6.483,-14.48 14.48,-14.48 7.966,0 14.436,6.434 14.48,14.4 0.044,7.997 -6.403,14.516 -14.4,14.56 -0.026,0 -0.053,0 -0.08,0 z M 381.9046,265.08351 h -51.12 c -4.418,0 -8,3.582 -8,8 0,4.418 3.582,8 8,8 h 51.12 v 22.8 H 79.664601 v -22.8 H 130.7846 c 4.418,0 8,-3.582 8,-8 0,-4.418 -3.582,-8 -8,-8 H 79.664601 v -22.48 H 381.9046 Z m 1.76,-38.56 H 77.904601 l -29.44,-114.64 87.999999,66.64 c 3.535,2.651 8.549,1.935 11.2,-1.6 l 83.44,-110.560001 83.04,110.400001 c 2.651,3.535 7.665,4.251 11.2,1.6 v 0 l 88,-66.64 z m 48,-144.000001 c -7.997,0 -14.48,-6.483 -14.48,-14.48 0,-7.997 6.483,-14.48 14.48,-14.48 7.997,0 14.48,6.483 14.48,14.48 -0.044,7.935 -6.465,14.356 -14.4,14.4 z"
   id="path24"
   inkscape:connector-curvature="0" />
<g
   id="g26"
   transform="translate(6.0119672e-4,-71.494491)">
</g>
<g
   id="g28"
   transform="translate(6.0119672e-4,-71.494491)">
</g>
<g
   id="g30"
   transform="translate(6.0119672e-4,-71.494491)">
</g>
<g
   id="g32"
   transform="translate(6.0119672e-4,-71.494491)">
</g>
<g
   id="g34"
   transform="translate(6.0119672e-4,-71.494491)">
</g>
<g
   id="g36"
   transform="translate(6.0119672e-4,-71.494491)">
</g>
<g
   id="g38"
   transform="translate(6.0119672e-4,-71.494491)">
</g>
<g
   id="g40"
   transform="translate(6.0119672e-4,-71.494491)">
</g>
<g
   id="g42"
   transform="translate(6.0119672e-4,-71.494491)">
</g>
<g
   id="g44"
   transform="translate(6.0119672e-4,-71.494491)">
</g>
<g
   id="g46"
   transform="translate(6.0119672e-4,-71.494491)">
</g>
<g
   id="g48"
   transform="translate(6.0119672e-4,-71.494491)">
</g>
<g
   id="g50"
   transform="translate(6.0119672e-4,-71.494491)">
</g>
<g
   id="g52"
   transform="translate(6.0119672e-4,-71.494491)">
</g>
<g
   id="g54"
   transform="translate(6.0119672e-4,-71.494491)">
</g>
</svg>